<svg id="Layer_2" data-name="Layer 2" xmlns="http://www.w3.org/2000/svg" viewBox="0 0 62.84 64"><defs><style>.cls-1{fill:#606771;}.cls-2{fill:#fffd00;}.cls-3{fill:#ffbf01;}.cls-4{fill:#ffed01;}.cls-5{fill:#feffff;}.cls-6{fill:#fff;}</style></defs><path class="cls-1" d="M31.28,64H1.59c-.31,0-.28,0-.28-.28V31.42c0-.31,0-.28.28-.28q14.73,0,29.47,0c10,0,19.91,0,29.86,0,.39,0,.35-.05.35.36V63.65c0,.4.06.35-.35.35ZM30.09,47.57V32.66c0-.37.05-.33-.32-.33H2.83c-.37,0-.32,0-.32.34V62.48c0,.37,0,.32.31.32h27c.35,0,.31,0,.31-.32ZM34,48.72v9.77a.5.5,0,0,0,.17.4l3,2.74a.5.5,0,0,0,.38.14H56.36c.3,0,.26,0,.26-.27V56.15c0-.34,0-.3-.3-.3H40.74c-.37,0-.32,0-.32-.31V42c0-.38-.05-.33.33-.33H56.43c.19,0,.19,0,.19-.19V35.82c0-.11,0-.15-.14-.15H37.53a.6.6,0,0,0-.46.18c-1,.9-1.93,1.8-2.9,2.68A.56.56,0,0,0,34,39Z" transform="translate(-0.58)"/><path class="cls-2" d="M40.18,23.24c.1,0,.13.1.17.17a7.81,7.81,0,0,1,1.36,5,8.09,8.09,0,0,1-.24,1.46c0,.14-.1.21-.24.19H23c-.38,0-.32,0-.39-.29a7.73,7.73,0,0,1,1.14-6.33l.08-.09a1.07,1.07,0,0,0,.4.05h4c.45,0,.9,0,1.34,0s.89,0,1.33,0H40A.18.18,0,0,0,40.18,23.24Z" transform="translate(-0.58)"/><path class="cls-3" d="M32,0c1,5.89,2,11.77,3,17.71a14.39,14.39,0,0,0-3-.33,13.68,13.68,0,0,0-2.92.32C29.07,17.48,31.78,1,32,0Z" transform="translate(-0.58)"/><path class="cls-2" d="M.58,27.81l20-2.62A9.49,9.49,0,0,0,20.48,30a.38.38,0,0,1-.23,0H17.3a9.2,9.2,0,0,1-1-.12l-2.85-.38-3.3-.43-2.78-.36-3.71-.49L.67,27.85Z" transform="translate(-0.58)"/><path class="cls-2" d="M63.42,27.84l-2.87.38L58,28.55l-2.83.36-2.8.37-2.86.38L47,30H43.57a9.57,9.57,0,0,0-.13-4.81l20,2.61Z" transform="translate(-0.58)"/><path class="cls-4" d="M40.18,23.24a.18.18,0,0,1-.17.11H30.89c-.44,0-.88,0-1.33,0s-.89,0-1.34,0h-4a1.07,1.07,0,0,1-.4-.05,3.57,3.57,0,0,1,.52-.69,10,10,0,0,1,6-3.24,10.59,10.59,0,0,1,6.25.85,9.46,9.46,0,0,1,2.81,2c.29.3.54.63.8.95A.38.38,0,0,1,40.18,23.24Z" transform="translate(-0.58)"/><path class="cls-3" d="M54.24,8.14a.38.38,0,0,1-.15.22c-.72.87-1.44,1.73-2.17,2.59l-3.66,4.37-2.91,3.47a1.85,1.85,0,0,0-.14.14,2.61,2.61,0,0,0-.74-.05h-1c-.34,0-.67,0-1,0-.55,0-1.09,0-1.64,0s-1.08,0-1.62,0a.37.37,0,0,0-.18,0,.53.53,0,0,1-.33,0,.33.33,0,0,0-.37.09.87.87,0,0,1-.3-.16.43.43,0,0,1,.2-.16c1.71-1.13,3.41-2.27,5.13-3.38,1.91-1.24,3.8-2.5,5.7-3.75l5-3.29.17-.1Z" transform="translate(-0.58)"/><path class="cls-3" d="M9.87,8.19a1.41,1.41,0,0,1,.29.18l13.55,8.91,1.76,1.16c-.06.15-.19.08-.28.08H19a1.61,1.61,0,0,0-.44,0c-.44-.47-.83-1-1.24-1.45L10.08,8.51c-.08-.1-.2-.18-.21-.32Z" transform="translate(-0.58)"/><path class="cls-4" d="M18.55,18.58a1.61,1.61,0,0,1,.44,0h6.2c.09,0,.22.07.28-.08a6.78,6.78,0,0,1,.57.37c-.42.25-.83.47-1.21.74a11.48,11.48,0,0,0-1.12.86c-.34.31-.67.64-1,1a12.7,12.7,0,0,0-.86,1.11c-.09,0-.12-.08-.16-.13L18.63,18.7A.5.5,0,0,1,18.55,18.58Z" transform="translate(-0.58)"/><path class="cls-4" d="M38.33,19a.33.33,0,0,1,.37-.09.53.53,0,0,0,.33,0,.37.37,0,0,1,.18,0c.54,0,1.08,0,1.62,0s1.09,0,1.64,0c.34,0,.67,0,1,0h1a2.61,2.61,0,0,1,.74.05c-.26.36-.57.69-.85,1l-2,2.44a.27.27,0,0,1-.11.1c-.06,0-.08-.06-.1-.1a11.22,11.22,0,0,0-3.66-3.33A.94.94,0,0,1,38.33,19Z" transform="translate(-0.58)"/><path class="cls-3" d="M9.87,8.19s0,0-.06,0v0a0,0,0,0,1,.06,0Z" transform="translate(-0.58)"/><polygon class="cls-3" points="53.66 8.14 53.66 8.14 53.66 8.14 53.66 8.14"/><path class="cls-5" d="M34,48.72V39a.56.56,0,0,1,.19-.45c1-.88,1.93-1.78,2.9-2.68a.6.6,0,0,1,.46-.18H56.48c.11,0,.15,0,.14.15v5.66c0,.19,0,.19-.19.19H40.75c-.38,0-.33-.05-.33.33V55.54c0,.36-.05.31.32.31H56.32c.34,0,.3,0,.3.3v5.34c0,.3,0,.27-.26.27H37.48a.5.5,0,0,1-.38-.14l-3-2.74a.5.5,0,0,1-.17-.4Z" transform="translate(-0.58)"/><polygon class="cls-6" points="3.54 61.21 9.91 61.21 9.89 41.04 21.49 41.04 21.49 55.32 14.33 55.32 14.33 61.21 24.73 61.21 27.98 58.15 27.98 37.97 24.73 34.94 3.54 34.94 3.54 61.21"/></svg>